HIERARCHY
ROOT Hips
{
    OFFSET   0.000000   0.000000   0.000000
    CHANNELS 6 Xposition Yposition Zposition Zrotation Xrotation Yrotation
    JOINT Chest
    {
        OFFSET   0.000000   8.007240   0.000000
        CHANNELS 3 Zrotation Xrotation Yrotation
        JOINT Chest2
        {
            OFFSET   0.000000  22.077100   0.000000
            CHANNELS 3 Zrotation Xrotation Yrotation
            JOINT Neck
            {
                OFFSET   0.000000  23.254800   0.000000
                CHANNELS 3 Zrotation Xrotation Yrotation
                JOINT Head
                {
                    OFFSET   0.000000  14.370000   1.956600
                    CHANNELS 3 Zrotation Xrotation Yrotation
                    End Site
                    {
                        OFFSET   0.000000  19.566000   0.000000
                    }
                }
            }
            JOINT LeftCollar
            {
                OFFSET   3.911900  19.017000  -0.467064
                CHANNELS 3 Zrotation Xrotation Yrotation
                JOINT LeftShoulder
                {
                    OFFSET  10.383700   0.000000   0.000000
                    CHANNELS 3 Zrotation Xrotation Yrotation
                    JOINT LeftElbow
                    {
                        OFFSET  26.662100   0.001476   0.000517
                        CHANNELS 3 Zrotation Xrotation Yrotation
                        JOINT LeftWrist
                        {
                            OFFSET  28.869000  -0.000025  -0.000106
                            CHANNELS 3 Zrotation Xrotation Yrotation
                            JOINT LeftFinger0
                            {
                                OFFSET   2.044660  -2.323460   3.252850
                                CHANNELS 3 Zrotation Xrotation Yrotation
                                JOINT LeftFinger01
                                {
                                    OFFSET   3.088130   0.000000   0.000000
                                    CHANNELS 3 Zrotation Xrotation Yrotation
                                    JOINT LeftFinger02
                                    {
                                        OFFSET   2.639460   0.000000   0.000000
                                        CHANNELS 3 Zrotation Xrotation Yrotation
                                        End Site
                                        {
                                            OFFSET   2.582190   0.000000   0.000000
                                        }
                                    }
                                }
                            }
                            JOINT LeftFinger1
                            {
                                OFFSET   8.364480   0.000000   3.252850
                                CHANNELS 3 Zrotation Xrotation Yrotation
                                JOINT LeftFinger11
                                {
                                    OFFSET   4.646930   0.000000   0.000000
                                    CHANNELS 3 Zrotation Xrotation Yrotation
                                    JOINT LeftFinger12
                                    {
                                        OFFSET   2.323460   0.000000   0.000000
                                        CHANNELS 3 Zrotation Xrotation Yrotation
                                        End Site
                                        {
                                            OFFSET   2.273050   0.000000   0.000000
                                        }
                                    }
                                }
                            }
                            JOINT LeftFinger2
                            {
                                OFFSET   8.364490   0.000015   1.078090
                                CHANNELS 3 Zrotation Xrotation Yrotation
                                JOINT LeftFinger21
                                {
                                    OFFSET   5.111620   0.000000   0.000000
                                    CHANNELS 3 Zrotation Xrotation Yrotation
                                    JOINT LeftFinger22
                                    {
                                        OFFSET   2.788160   0.000016   0.000000
                                        CHANNELS 3 Zrotation Xrotation Yrotation
                                        End Site
                                        {
                                            OFFSET   2.727660   0.000000   0.000000
                                        }
                                    }
                                }
                            }
                            JOINT LeftFinger3
                            {
                                OFFSET   7.899780   0.000017  -1.078090
                                CHANNELS 3 Zrotation Xrotation Yrotation
                                JOINT LeftFinger31
                                {
                                    OFFSET   4.646930   0.000000   0.000000
                                    CHANNELS 3 Zrotation Xrotation Yrotation
                                    JOINT LeftFinger32
                                    {
                                        OFFSET   2.323470   0.000000   0.000000
                                        CHANNELS 3 Zrotation Xrotation Yrotation
                                        End Site
                                        {
                                            OFFSET   2.273050   0.000000   0.000000
                                        }
                                    }
                                }
                            }
                            JOINT LeftFinger4
                            {
                                OFFSET   7.435090   0.000000  -3.252850
                                CHANNELS 3 Zrotation Xrotation Yrotation
                                JOINT LeftFinger41
                                {
                                    OFFSET   3.717550   0.000000   0.000000
                                    CHANNELS 3 Zrotation Xrotation Yrotation
                                    JOINT LeftFinger42
                                    {
                                        OFFSET   1.858770   0.000000   0.000000
                                        CHANNELS 3 Zrotation Xrotation Yrotation
                                        End Site
                                        {
                                            OFFSET   1.818440   0.000000   0.000000
                                        }
                                    }
                                }
                            }
                        }
                    }
                }
            }
            JOINT RightCollar
            {
                OFFSET  -3.911900  19.017000  -0.467063
                CHANNELS 3 Zrotation Xrotation Yrotation
                JOINT RightShoulder
                {
                    OFFSET -10.383700   0.000019   0.000000
                    CHANNELS 3 Zrotation Xrotation Yrotation
                    JOINT RightElbow
                    {
                        OFFSET -26.662100   0.001175   0.000102
                        CHANNELS 3 Zrotation Xrotation Yrotation
                        JOINT RightWrist
                        {
                            OFFSET -28.869000   0.000016  -0.000079
                            CHANNELS 3 Zrotation Xrotation Yrotation
                            JOINT RightFinger0
                            {
                                OFFSET  -2.044660  -2.323490   3.252850
                                CHANNELS 3 Zrotation Xrotation Yrotation
                                JOINT RightFinger01
                                {
                                    OFFSET  -3.088140   0.000000   0.000000
                                    CHANNELS 3 Zrotation Xrotation Yrotation
                                    JOINT RightFinger02
                                    {
                                        OFFSET  -2.639460   0.000000   0.000000
                                        CHANNELS 3 Zrotation Xrotation Yrotation
                                        End Site
                                        {
                                            OFFSET  -2.582190   0.000000   0.000000
                                        }
                                    }
                                }
                            }
                            JOINT RightFinger1
                            {
                                OFFSET  -8.364480   0.000000   3.252850
                                CHANNELS 3 Zrotation Xrotation Yrotation
                                JOINT RightFinger11
                                {
                                    OFFSET  -4.646930   0.000000   0.000000
                                    CHANNELS 3 Zrotation Xrotation Yrotation
                                    JOINT RightFinger12
                                    {
                                        OFFSET  -2.323470   0.000000   0.000000
                                        CHANNELS 3 Zrotation Xrotation Yrotation
                                        End Site
                                        {
                                            OFFSET  -2.273050   0.000000   0.000000
                                        }
                                    }
                                }
                            }
                            JOINT RightFinger2
                            {
                                OFFSET  -8.364480   0.000000   1.078090
                                CHANNELS 3 Zrotation Xrotation Yrotation
                                JOINT RightFinger21
                                {
                                    OFFSET  -5.111620   0.000000   0.000000
                                    CHANNELS 3 Zrotation Xrotation Yrotation
                                    JOINT RightFinger22
                                    {
                                        OFFSET  -2.788160   0.000000   0.000000
                                        CHANNELS 3 Zrotation Xrotation Yrotation
                                        End Site
                                        {
                                            OFFSET  -2.727660   0.000000   0.000000
                                        }
                                    }
                                }
                            }
                            JOINT RightFinger3
                            {
                                OFFSET  -7.899780   0.000000  -1.078090
                                CHANNELS 3 Zrotation Xrotation Yrotation
                                JOINT RightFinger31
                                {
                                    OFFSET  -4.646930   0.000000   0.000000
                                    CHANNELS 3 Zrotation Xrotation Yrotation
                                    JOINT RightFinger32
                                    {
                                        OFFSET  -2.323470   0.000000   0.000000
                                        CHANNELS 3 Zrotation Xrotation Yrotation
                                        End Site
                                        {
                                            OFFSET  -2.273050   0.000000   0.000000
                                        }
                                    }
                                }
                            }
                            JOINT RightFinger4
                            {
                                OFFSET  -7.435090   0.000000  -3.252850
                                CHANNELS 3 Zrotation Xrotation Yrotation
                                JOINT RightFinger41
                                {
                                    OFFSET  -3.717550   0.000000   0.000000
                                    CHANNELS 3 Zrotation Xrotation Yrotation
                                    JOINT RightFinger42
                                    {
                                        OFFSET  -1.858770   0.000000   0.000000
                                        CHANNELS 3 Zrotation Xrotation Yrotation
                                        End Site
                                        {
                                            OFFSET  -1.818440   0.000000   0.000000
                                        }
                                    }
                                }
                            }
                        }
                    }
                }
            }
        }
    }
    JOINT LeftHip
    {
        OFFSET   9.783040   0.000000   0.000000
        CHANNELS 3 Zrotation Xrotation Yrotation
        JOINT LeftKnee
        {
            OFFSET   0.000032 -41.789100  -0.002222
            CHANNELS 3 Zrotation Xrotation Yrotation
            JOINT LeftAnkle
            {
                OFFSET   0.000087 -41.133200  -0.000135
                CHANNELS 3 Zrotation Xrotation Yrotation
                JOINT LeftToe
                {
                    OFFSET   0.000000  -6.358960  14.674500
                    CHANNELS 3 Zrotation Xrotation Yrotation
                    End Site
                    {
                        OFFSET   0.000000   0.000000   3.913200
                    }
                }
            }
        }
    }
    JOINT RightHip
    {
        OFFSET  -9.783040   0.000000   0.000000
        CHANNELS 3 Zrotation Xrotation Yrotation
        JOINT RightKnee
        {
            OFFSET   0.000047 -41.789100  -0.000896
            CHANNELS 3 Zrotation Xrotation Yrotation
            JOINT RightAnkle
            {
                OFFSET  -0.000117 -41.133300  -0.000248
                CHANNELS 3 Zrotation Xrotation Yrotation
                JOINT RightToe
                {
                    OFFSET   0.000000  -6.358970  14.674500
                    CHANNELS 3 Zrotation Xrotation Yrotation
                    End Site
                    {
                        OFFSET   0.000000   0.000000   3.913200
                    }
                }
            }
        }
    }
}
MOTION
Frames: 6
Frame Time:   0.016667
  4.275890  89.328300  -2.482620   3.712290 -16.909000  12.457600  -0.035267  12.170200   3.535070  -0.890330  24.313600   7.335610  -3.235320   0.233838   0.020392  -5.315410   0.469456 -16.170400  -7.775250  -2.896290   7.484760 -72.779200  17.490300 -10.544500  -0.695978   0.247626 -14.277400   9.428700  -4.290010  -2.134920  39.728800  31.186300 -53.268200 -30.804900   0.001738   0.001062 -10.403000   0.000206   0.001709 -32.638300   0.518852  -0.809919 -26.707000   0.001283  -0.001091 -18.694900   0.000979  -0.000190 -29.501300  -3.743740   6.582910 -44.575000   0.002106  -0.000770 -29.686900   0.000000  -0.004678 -27.497300  -4.292960   8.173750 -30.810300  -0.000562  -0.002414 -20.519700   0.000000   0.000000 -30.648100  -4.731990   7.925970 -46.464200   0.003251   0.000167 -30.945200   0.000487   0.002502   5.534390   2.176550  11.270100  55.076800   5.424870  68.807900 -19.675400 -25.349600  84.856100 -87.489100   3.087780  63.402900 -40.689400  39.922100  83.624600  15.703000   0.004582  -0.001242   2.851470   0.000713   0.002772  49.004100  10.053400   8.627270  40.716500  -0.005271  -0.000059  30.537300  -0.000474   0.003609  74.352800  -0.124866  -0.034941  74.352800   0.001440   0.002411  55.764600   0.003734   0.000513  78.254000  -4.896060  -1.016730  78.297500  -0.003831   0.004023  58.723100   0.002805   0.000778  71.594700  -9.498280  -3.143060 107.784000   0.002605  -0.000287  71.784100  -0.001241   0.000917   0.037263  15.695600  -2.041120   0.134372   1.842290   5.259180  -1.800810  -0.942169  -1.980660   0.000000   0.000000  -0.000000  -3.107880  13.402600  -5.130910  -2.024140  12.127200 -14.014900   3.346080  -7.080430  -2.412910  -0.000000   0.000000   0.000000
  4.326590  89.321800  -2.452190   3.750050 -16.901100  12.588300  -0.028555  12.175900   3.520440  -0.874367  24.325400   7.304040  -3.266890   0.214615   0.020112  -5.367150   0.430458 -16.120100  -7.789800  -2.885770   7.508000 -72.761900  17.498500 -10.577500  -0.702215   0.220552 -14.325100   9.418130  -4.296840  -2.143500  39.743800  31.222000 -53.319500 -30.808500   0.001726   0.001083 -10.404500   0.000199   0.001672 -32.656500   0.517634  -0.807476 -26.720900   0.001274  -0.001071 -18.705700   0.000966  -0.000202 -29.516400  -3.743760   6.579950 -44.597600   0.002115  -0.000776 -29.701900   0.000000  -0.004655 -27.497400  -4.294770   8.182100 -30.830000  -0.000543  -0.002440 -20.532800   0.000000   0.000000 -30.671400  -4.740490   7.932200 -46.499000   0.003241   0.000165 -30.968400   0.000522   0.002466   5.480210   2.316860  11.262700  55.108500   5.384180  68.902300 -19.790200 -25.416100  85.266700 -87.435500   3.139230  63.369300 -40.687900  39.920600  83.622200  15.795600   0.004510  -0.001185   2.897810   0.000609   0.002710  49.124200  10.048400   8.595640  40.811600  -0.005266  -0.000061  30.608700  -0.000465   0.003645  74.504400  -0.094727  -0.026259  74.504400   0.001416   0.002419  55.878300   0.003802   0.000511  78.440300  -4.896170  -1.000750  78.483100  -0.003878   0.004030  58.862300   0.002815   0.000799  71.763900  -9.507240  -3.115060 108.034000   0.002686  -0.000280  71.951000  -0.001202   0.000891   0.029837  15.724000  -2.056640   0.107767   1.801770   5.191110  -1.793790  -0.931494  -2.018440  -0.000000   0.000000   0.000000  -3.138280  13.430000  -5.149210  -2.018470  12.148700 -14.053800   3.374940  -7.092430  -2.479270   0.000000   0.000000  -0.000000
  4.376270  89.314400  -2.421540   3.786400 -16.894400  12.713600  -0.022716  12.178400   3.502630  -0.857494  24.331200   7.265790  -3.296340   0.206882   0.019822  -5.415620   0.414734 -16.053400  -7.798700  -2.869020   7.525140 -72.739000  17.524300 -10.616300  -0.715237   0.167330 -14.358700   9.398720  -4.297810  -2.150360  39.759800  31.259300 -53.373300 -30.812200   0.001713   0.001104 -10.406100   0.000193   0.001634 -32.670400   0.516837  -0.805901 -26.733200   0.001263  -0.001051 -18.713300   0.000951  -0.000216 -29.526500  -3.743770   6.577480 -44.612500   0.002123  -0.000782 -29.711900   0.000000  -0.004633 -27.497300  -4.295840   8.187400 -30.842100  -0.000523  -0.002465 -20.540800   0.000000  -0.000000 -30.689200  -4.745890   7.936150 -46.527900   0.003229   0.000162 -30.987600   0.000555   0.002430   5.418040   2.465820  11.250600  55.129500   5.321440  69.068000 -19.869300 -25.450700  85.477300 -87.324400   3.257570  63.294800 -40.687700  39.920400  83.621900  15.810200   0.004441  -0.001129   2.905110   0.000506   0.002649  49.242900  10.019000   8.527910  40.902400  -0.005261  -0.000064  30.676800  -0.000458   0.003680  74.660700  -0.064648  -0.017735  74.660700   0.001393   0.002428  55.995600   0.003869   0.000506  78.607000  -4.896380  -0.986465  78.649200  -0.003926   0.004035  58.986900   0.002825   0.000820  71.945400  -9.516800  -3.084990 108.303000   0.002767  -0.000272  72.130000  -0.001164   0.000866   0.021723  15.757500  -2.071410   0.080579   1.761530   5.126220  -1.788120  -0.921918  -2.054770   0.000000   0.000000   0.000000  -3.165270  13.459400  -5.157130  -2.017440  12.172900 -14.093500   3.397810  -7.105450  -2.548760  -0.000000   0.000000   0.000000
  4.425020  89.307700  -2.391680   3.821250 -16.897800  12.826900  -0.018447  12.177400   3.482680  -0.841582  24.330100   7.223390  -3.320650   0.215648   0.019510  -5.453260   0.432725 -15.972000  -7.801760  -2.839360   7.538870 -72.708600  17.571200 -10.664900  -0.731658   0.101370 -14.376700   9.375170  -4.269610  -2.155030  39.782300  31.293000 -53.420600 -30.806300   0.001706   0.001082 -10.403100   0.000180   0.001601 -32.672800   0.524581  -0.817932 -26.737500   0.001247  -0.001029 -18.714100   0.000933  -0.000231 -29.526600  -3.743780   6.576130 -44.612500   0.002133  -0.000790 -29.711900   0.000000  -0.004608 -27.499400  -4.290300   8.176890 -30.840000  -0.000502  -0.002487 -20.538800   0.000000  -0.000028 -30.693500  -4.740070   7.925780 -46.534400   0.003216   0.000159 -30.992000   0.000587   0.002397   5.356070   2.600450  11.231600  55.041600   5.250400  69.231700 -19.925000 -25.572700  85.424000 -87.165900   3.445410  63.123200 -40.736600  39.988500  83.698800  15.716900   0.004414  -0.001143   2.858460   0.000396   0.002592  49.359400   9.943540   8.433820  40.983300  -0.005258  -0.000061  30.737400  -0.000445   0.003729  74.820200  -0.037837  -0.010257  74.820100   0.001379   0.002429  56.115200   0.003935   0.000498  78.750900  -4.896680  -0.974168  78.792600  -0.003971   0.004045  59.094500   0.002844   0.000846  72.126900  -9.526340  -3.054920 108.572000   0.002852  -0.000252  72.309100  -0.001132   0.000848   0.011167  15.797100  -2.082090   0.053341   1.727600   5.071330  -1.781420  -0.915809  -2.092330  -0.000000   0.000000   0.000000  -3.191270  13.498600  -5.150970  -2.007430  12.194100 -14.161200   3.407030  -7.120130  -2.594520   0.000000   0.000000   0.000000
  4.470670  89.301900  -2.362570   3.853890 -16.909000  12.927400  -0.015690  12.172300   3.470670  -0.835104  24.320000   7.197760  -3.332790   0.237525   0.019196  -5.475520   0.477052 -15.892500  -7.805020  -2.803940   7.544960 -72.674300  17.624500 -10.712800  -0.747423   0.038162 -14.387000   9.355350  -4.232250  -2.161400  39.796400  31.311100 -53.445900 -30.792600   0.001695   0.001049 -10.396300   0.000169   0.001570 -32.673100   0.541500  -0.844266 -26.738600   0.001231  -0.001007 -18.714200   0.000913  -0.000247 -29.526700  -3.743780   6.575320 -44.612500   0.002141  -0.000796 -29.712000   0.000000  -0.004586 -27.503000  -4.279400   8.155980 -30.837900  -0.000480  -0.002507 -20.536900   0.000000  -0.000067 -30.699100  -4.728870   7.905010 -46.539000   0.003201   0.000154 -30.995000   0.000617   0.002363   5.296120   2.717060  11.205400  54.852400   5.158570  69.423100 -20.256200 -25.753700  85.186700 -87.020900   3.639570  62.958400 -40.863200  40.164300  83.895500  15.452900   0.004389  -0.001157   2.726470   0.000288   0.002537  49.433600   9.857420   8.338510  41.035000  -0.005255  -0.000059  30.776200  -0.000432   0.003782  74.957600  -0.015402  -0.004167  74.957500   0.001365   0.002429  56.218200   0.004002   0.000492  78.823600  -4.897020  -0.967967  78.865000  -0.004014   0.004056  59.148800   0.002864   0.000874  72.283200  -9.534550  -3.029040 108.804000   0.002937  -0.000230  72.463200  -0.001100   0.000827  -0.002034  15.838100  -2.092720   0.028020   1.700140   5.023270  -1.774200  -0.913302  -2.123570  -0.000000   0.000000   0.000000  -3.213080  13.542700  -5.144910  -1.998660  12.211900 -14.234600   3.406840  -7.136140  -2.625280   0.000000   0.000000   0.000000
  4.510700  89.298000  -2.333690   3.881680 -16.922300  13.010400  -0.017890  12.160500   3.470440  -0.840756  24.296000   7.196740  -3.331160   0.272574   0.018903  -5.472230   0.547392 -15.825200  -7.801820  -2.762920   7.532450 -72.641000  17.669700 -10.748300  -0.756089   0.002565 -14.396200   9.348240  -4.221530  -2.173080  39.804300  31.309200 -53.444600 -30.772600   0.001674   0.001031 -10.386300   0.000167   0.001537 -32.673700   0.565990  -0.882498 -26.739500   0.001217  -0.000989 -18.714300   0.000893  -0.000265 -29.527100  -3.743790   6.574760 -44.612900   0.002146  -0.000797 -29.712200   0.000000  -0.004570 -27.507200  -4.266150   8.130120 -30.842800  -0.000456  -0.002529 -20.540700   0.000000  -0.000081 -30.711400  -4.715490   7.879160 -46.554500   0.003189   0.000146 -31.005300   0.000645   0.002325   5.243890   2.802700  11.173500  54.635100   5.040440  69.656400 -20.431000 -25.845600  84.589300 -86.973000   3.780960  62.903800 -41.083000  40.465300  84.233100  14.970000   0.004326  -0.001098   2.485030   0.000187   0.002481  49.455700   9.791600   8.265460  41.047400  -0.005252  -0.000059  30.785600  -0.000420   0.003832  75.049900   0.001860   0.000108  75.049900   0.001345   0.002438  56.287400   0.004071   0.000496  78.819600  -4.897340  -0.968320  78.861000  -0.004054   0.004068  59.145800   0.002880   0.000904  72.388000  -9.540130  -3.011770 108.959000   0.003016  -0.000216  72.566600  -0.001059   0.000793  -0.018666  15.877100  -2.105800   0.007083   1.680000   4.980160  -1.766640  -0.914892  -2.141140   0.000000   0.000000   0.000000  -3.226950  13.590400  -5.147740  -1.995350  12.225300 -14.313100   3.402500  -7.154030  -2.635030  -0.000000   0.000000   0.000000
